<svg width="40" height="40" viewBox="0 0 40 40" fill="none" xmlns="http://www.w3.org/2000/svg">
<path d="M32.0501 25.4333L27.8167 24.95C27.319 24.8915 26.8144 24.9466 26.341 25.1112C25.8676 25.2757 25.4376 25.5454 25.0834 25.9L22.0167 28.9667C17.2857 26.5599 13.4402 22.7143 11.0334 17.9833L14.1167 14.9C14.8334 14.1833 15.1834 13.1833 15.0667 12.1667L14.5834 7.96667C14.4893 7.15348 14.0992 6.40337 13.4875 5.85932C12.8758 5.31527 12.0854 5.01533 11.2667 5.01667H8.3834C6.50007 5.01667 4.9334 6.58333 5.05007 8.46667C5.9334 22.7 17.3167 34.0667 31.5334 34.95C33.4167 35.0667 34.9834 33.5 34.9834 31.6167V28.7333C35.0001 27.05 33.7334 25.6333 32.0501 25.4333Z" fill="#454545"/>
</svg>
