<svg width="25" height="24" viewBox="0 0 25 24" fill="none" xmlns="http://www.w3.org/2000/svg">
    <path d="M18.1788 4.13242V2.06189C18.1788 1.88242 17.9725 1.78332 17.8332 1.89314L5.75821 11.3244C5.65562 11.4042 5.5726 11.5063 5.5155 11.6231C5.4584 11.7398 5.42871 11.8681 5.42871 11.998C5.42871 12.128 5.4584 12.2563 5.5155 12.373C5.5726 12.4898 5.65562 12.5919 5.75821 12.6717L17.8332 22.103C17.9752 22.2128 18.1788 22.1137 18.1788 21.9342V19.8637C18.1788 19.7324 18.1171 19.6065 18.0154 19.5262L8.3725 11.9994L18.0154 4.46992C18.1171 4.38957 18.1788 4.26367 18.1788 4.13242V4.13242Z" fill="#89939E"/>
</svg>
