<svg width="25" height="24" viewBox="0 0 25 24" fill="none" xmlns="http://www.w3.org/2000/svg">
    <path d="M19.2955 11.3256L7.22054 1.89438C7.18899 1.86954 7.15107 1.8541 7.11114 1.84984C7.07121 1.84558 7.03088 1.85266 6.9948 1.87029C6.95871 1.88791 6.92833 1.91535 6.90714 1.94946C6.88595 1.98357 6.87481 2.02297 6.875 2.06313V4.13366C6.875 4.26491 6.93661 4.39081 7.0384 4.47116L16.6813 12.0006L7.0384 19.5301C6.93393 19.6104 6.875 19.7363 6.875 19.8676V21.9381C6.875 22.1176 7.08125 22.2167 7.22054 22.1069L19.2955 12.6756C19.3982 12.5956 19.4812 12.4932 19.5383 12.3762C19.5954 12.2592 19.6251 12.1308 19.6251 12.0006C19.6251 11.8705 19.5954 11.742 19.5383 11.6251C19.4812 11.5081 19.3982 11.4057 19.2955 11.3256Z" fill="#292B2C"/>
</svg>
