<svg width="33" height="32" viewBox="0 0 33 32" fill="none" xmlns="http://www.w3.org/2000/svg">
<path d="M26.5952 6.16572C25.3727 4.93119 23.9166 3.95234 22.3119 3.2862C20.7072 2.62006 18.986 2.27996 17.2486 2.28572C9.96857 2.28572 4.03524 8.21905 4.03524 15.499C4.03524 17.8324 4.64857 20.0991 5.79524 22.0991L3.92857 28.9524L10.9286 27.1124C12.8619 28.1657 15.0352 28.7257 17.2486 28.7257C24.5286 28.7257 30.4619 22.7924 30.4619 15.5124C30.4619 11.979 29.0886 8.65905 26.5952 6.16572ZM17.2486 26.4857C15.2752 26.4857 13.3419 25.9524 11.6486 24.9524L11.2486 24.7124L7.08857 25.8057L8.19524 21.7524L7.92857 21.3391C6.83197 19.5885 6.24981 17.5647 6.24857 15.499C6.24857 9.44572 11.1819 4.51238 17.2352 4.51238C20.1686 4.51238 22.9286 5.65905 24.9952 7.73905C26.0187 8.75753 26.8298 9.96911 27.3814 11.3035C27.933 12.6379 28.2142 14.0685 28.2086 15.5124C28.2352 21.5657 23.3019 26.4857 17.2486 26.4857ZM23.2752 18.2724C22.9419 18.1124 21.3152 17.3124 21.0219 17.1924C20.7152 17.0857 20.5019 17.0324 20.2752 17.3524C20.0486 17.6857 19.4219 18.4324 19.2352 18.6457C19.0486 18.8724 18.8486 18.899 18.5152 18.7257C18.1819 18.5657 17.1152 18.2057 15.8619 17.0857C14.8752 16.2057 14.2219 15.1257 14.0219 14.7924C13.8352 14.4591 13.9952 14.2857 14.1686 14.1124C14.3152 13.9657 14.5019 13.7257 14.6619 13.539C14.8219 13.3524 14.8886 13.2057 14.9952 12.9924C15.1019 12.7657 15.0486 12.5791 14.9686 12.419C14.8886 12.259 14.2219 10.6324 13.9552 9.96572C13.6886 9.32572 13.4086 9.40572 13.2086 9.39238H12.5686C12.3419 9.39238 11.9952 9.47238 11.6886 9.80572C11.3952 10.139 10.5419 10.939 10.5419 12.5657C10.5419 14.1924 11.7286 15.7657 11.8886 15.979C12.0486 16.2057 14.2219 19.539 17.5286 20.9657C18.3152 21.3124 18.9286 21.5124 19.4086 21.659C20.1952 21.9124 20.9152 21.8724 21.4886 21.7924C22.1286 21.699 23.4486 20.9924 23.7152 20.219C23.9952 19.4457 23.9952 18.7924 23.9019 18.6457C23.8086 18.4991 23.6086 18.4324 23.2752 18.2724Z" fill="white"/>
</svg>
