<svg width="33" height="32" viewBox="0 0 33 32" fill="none" xmlns="http://www.w3.org/2000/svg">
<path d="M10.9 2.28564H22.1C26.3667 2.28564 29.8333 5.75231 29.8333 10.019V21.219C29.8333 23.27 29.0186 25.237 27.5683 26.6873C26.118 28.1376 24.151 28.9523 22.1 28.9523H10.9C6.63333 28.9523 3.16666 25.4856 3.16666 21.219V10.019C3.16666 7.96797 3.98142 6.00097 5.4317 4.55069C6.88199 3.1004 8.84899 2.28564 10.9 2.28564ZM10.6333 4.95231C9.36029 4.95231 8.13939 5.45802 7.23922 6.3582C6.33904 7.25837 5.83333 8.47927 5.83333 9.75231V21.4856C5.83333 24.139 7.98 26.2856 10.6333 26.2856H22.3667C23.6397 26.2856 24.8606 25.7799 25.7608 24.8798C26.661 23.9796 27.1667 22.7587 27.1667 21.4856V9.75231C27.1667 7.09898 25.02 4.95231 22.3667 4.95231H10.6333ZM23.5 6.95231C23.942 6.95231 24.3659 7.12791 24.6785 7.44047C24.9911 7.75303 25.1667 8.17695 25.1667 8.61898C25.1667 9.06101 24.9911 9.48493 24.6785 9.79749C24.3659 10.11 23.942 10.2856 23.5 10.2856C23.058 10.2856 22.634 10.11 22.3215 9.79749C22.0089 9.48493 21.8333 9.06101 21.8333 8.61898C21.8333 8.17695 22.0089 7.75303 22.3215 7.44047C22.634 7.12791 23.058 6.95231 23.5 6.95231ZM16.5 8.95231C18.2681 8.95231 19.9638 9.65469 21.214 10.9049C22.4643 12.1552 23.1667 13.8509 23.1667 15.619C23.1667 17.3871 22.4643 19.0828 21.214 20.333C19.9638 21.5833 18.2681 22.2856 16.5 22.2856C14.7319 22.2856 13.0362 21.5833 11.786 20.333C10.5357 19.0828 9.83333 17.3871 9.83333 15.619C9.83333 13.8509 10.5357 12.1552 11.786 10.9049C13.0362 9.65469 14.7319 8.95231 16.5 8.95231ZM16.5 11.619C15.4391 11.619 14.4217 12.0404 13.6716 12.7905C12.9214 13.5407 12.5 14.5581 12.5 15.619C12.5 16.6798 12.9214 17.6973 13.6716 18.4474C14.4217 19.1975 15.4391 19.619 16.5 19.619C17.5609 19.619 18.5783 19.1975 19.3284 18.4474C20.0786 17.6973 20.5 16.6798 20.5 15.619C20.5 14.5581 20.0786 13.5407 19.3284 12.7905C18.5783 12.0404 17.5609 11.619 16.5 11.619Z" fill="white"/>
</svg>
