<svg width="33" height="32" viewBox="0 0 33 32" fill="none" xmlns="http://www.w3.org/2000/svg">
<path d="M13.8333 20.1905L20.7533 16.1905L13.8333 12.1905V20.1905ZM29.2467 9.75051C29.42 10.3772 29.54 11.2172 29.62 12.2838C29.7133 13.3505 29.7533 14.2705 29.7533 15.0705L29.8333 16.1905C29.8333 19.1105 29.62 21.2572 29.2467 22.6305C28.9133 23.8305 28.14 24.6038 26.94 24.9372C26.3133 25.1105 25.1667 25.2305 23.4067 25.3105C21.6733 25.4038 20.0867 25.4438 18.62 25.4438L16.5 25.5238C10.9133 25.5238 7.43333 25.3105 6.06 24.9372C4.86 24.6038 4.08666 23.8305 3.75333 22.6305C3.58 22.0038 3.46 21.1638 3.38 20.0972C3.28666 19.0305 3.24666 18.1105 3.24666 17.3105L3.16666 16.1905C3.16666 13.2705 3.38 11.1238 3.75333 9.75051C4.08666 8.55051 4.86 7.77718 6.06 7.44384C6.68666 7.27051 7.83333 7.15051 9.59333 7.07051C11.3267 6.97718 12.9133 6.93718 14.38 6.93718L16.5 6.85718C22.0867 6.85718 25.5667 7.07051 26.94 7.44384C28.14 7.77718 28.9133 8.55051 29.2467 9.75051Z" fill="white"/>
</svg>
