<svg width="24" height="24" viewBox="0 0 24 24" fill="none" xmlns="http://www.w3.org/2000/svg">
<g clip-path="url(#clip0_801_4219)">
<path d="M20.1365 16.0011C19.238 16.0051 18.3694 16.3354 17.6825 16.9344C17.6107 16.8593 17.5315 16.7923 17.446 16.7346L8.03454 11.638C7.93979 11.5966 7.84074 11.5666 7.73936 11.5485C7.75018 11.4334 7.77336 11.3232 7.77336 11.2065C7.77336 11.1921 7.77336 11.1793 7.77336 11.1665C7.8751 11.1556 7.97553 11.1341 8.07317 11.1026L17.2003 7.05121C17.2907 7.00051 17.3757 6.93997 17.4537 6.87062C18.0954 7.51094 18.9315 7.90202 19.8201 7.97753C20.7088 8.05304 21.5954 7.80832 22.3295 7.28489C23.0636 6.76146 23.6001 5.99154 23.8478 5.10572C24.0956 4.2199 24.0395 3.27271 23.689 2.42481C23.3384 1.57691 22.7151 0.880505 21.9247 0.453709C21.1342 0.0269126 20.2254 -0.103996 19.3523 0.0831853C18.4791 0.270367 17.6955 0.764115 17.1343 1.48068C16.5731 2.19725 16.2688 3.09253 16.2731 4.01466C16.2723 4.02796 16.2723 4.0413 16.2731 4.05461C16.1713 4.06613 16.0708 4.08808 15.9732 4.12014L6.84613 8.16995C6.7559 8.22104 6.67098 8.28155 6.59268 8.35054C6.05862 7.80565 5.38303 7.4329 4.64799 7.2776C3.91295 7.12229 3.15012 7.19112 2.45219 7.47571C1.75427 7.7603 1.15129 8.2484 0.716547 8.8807C0.2818 9.513 0.0339983 10.2623 0.00325416 11.0375C-0.02749 11.8127 0.160147 12.5804 0.543364 13.2474C0.926581 13.9144 1.48888 14.4519 2.16193 14.7947C2.83497 15.1374 3.58979 15.2706 4.33466 15.1781C5.07953 15.0855 5.78237 14.7713 6.35778 14.2734C6.42949 14.3485 6.50875 14.4155 6.59423 14.4732L16.0057 19.5698C16.0986 19.6193 16.1966 19.6579 16.2978 19.6849C16.2978 19.7904 16.2669 19.8927 16.2669 20.0045C16.2669 20.7948 16.4935 21.5672 16.918 22.2243C17.3425 22.8813 17.9459 23.3935 18.6519 23.6959C19.3578 23.9983 20.1347 24.0774 20.8841 23.9232C21.6335 23.7691 22.322 23.3885 22.8623 22.8298C23.4026 22.271 23.7706 21.5591 23.9196 20.784C24.0687 20.009 23.9922 19.2056 23.6998 18.4755C23.4074 17.7455 22.9122 17.1214 22.2768 16.6824C21.6415 16.2434 20.8945 16.0091 20.1304 16.0091L20.1365 16.0011Z" fill="#1F2A37"/>
</g>
<defs>
<clipPath id="clip0_801_4219">
<rect width="24" height="24" fill="white"/>
</clipPath>
</defs>
</svg>
