<svg width="22" height="23" viewBox="0 0 22 23" fill="none" xmlns="http://www.w3.org/2000/svg">
    <path d="M20.9581 9.20224L19.9853 8.22833C19.7794 8.02358 19.6668 7.75058 19.6668 7.46133V6.08333C19.6668 4.29149 18.2086 2.83333 16.4168 2.83333H15.0388C14.7538 2.83333 14.4743 2.71741 14.2728 2.51591L13.2989 1.54199C12.0314 0.274495 9.97093 0.274495 8.70343 1.54199L7.72734 2.51591C7.52584 2.71741 7.24634 2.83333 6.96143 2.83333H5.58343C3.79159 2.83333 2.33343 4.29149 2.33343 6.08333V7.46133C2.33343 7.75058 2.22076 8.02358 2.01601 8.22833L1.04209 9.20116C0.427844 9.81541 0.0898438 10.6322 0.0898438 11.5C0.0898438 12.3677 0.428927 13.1846 1.04209 13.7977L2.01493 14.7717C2.22076 14.9764 2.33343 15.2494 2.33343 15.5387V16.9167C2.33343 18.7085 3.79159 20.1667 5.58343 20.1667H6.96143C7.24634 20.1667 7.52584 20.2826 7.72734 20.4841L8.70126 21.4591C9.33501 22.0917 10.167 22.4081 10.999 22.4081C11.831 22.4081 12.663 22.0917 13.2968 21.458L14.2707 20.4841C14.4743 20.2826 14.7538 20.1667 15.0388 20.1667H16.4168C18.2086 20.1667 19.6668 18.7085 19.6668 16.9167V15.5387C19.6668 15.2494 19.7794 14.9764 19.9853 14.7717L20.9581 13.7988C21.5713 13.1846 21.9103 12.3688 21.9103 11.5C21.9103 10.6312 21.5723 9.81541 20.9581 9.20224ZM15.9347 10.2347L9.43468 14.568C9.25159 14.6904 9.04143 14.75 8.83343 14.75C8.55393 14.75 8.27659 14.6417 8.06751 14.4326L5.90084 12.2659C5.47726 11.8423 5.47726 11.1577 5.90084 10.7341C6.32443 10.3105 7.00909 10.3105 7.43268 10.7341L8.97101 12.2724L14.7322 8.43199C15.2316 8.09941 15.9033 8.23374 16.2348 8.73208C16.5673 9.23041 16.433 9.90316 15.9347 10.2347Z" fill="#138942"/>
</svg>
